<svg width="337" height="350" viewBox="0 0 337 350" fill="none" xmlns="http://www.w3.org/2000/svg">
<path fill-rule="evenodd" clip-rule="evenodd" d="M99.7866 384.702C98.1824 386.196 94.3321 387 88.022 387H10.4822C2.14002 387 -1.28242 383.208 0.428801 375.508L63.1023 94.1767C66.2039 80.3859 71.0167 66.94 77.6477 53.7238C84.1717 40.5077 92.7278 28.9005 103.209 18.6724C113.69 8.55918 126.311 0.399659 141.177 -5.80617C155.936 -11.8971 173.048 -15 192.3 -15H358.395C362.78 -15 365.454 -14.3105 366.416 -12.9314C367.379 -11.6672 367.165 -7.75986 365.668 -1.20926L351.229 63.7221C350.053 68.6638 348.663 72.1115 346.737 73.7204C344.919 75.4443 341.925 76.2487 337.967 76.2487H202.995C195.722 76.2487 189.626 77.283 184.813 79.4666C179.893 81.5352 176.043 84.1784 173.262 87.1664C170.375 90.2693 168.129 93.717 166.524 97.5094C164.92 101.302 163.744 105.209 162.888 109.002L154.974 144.628H298.609C302.994 144.628 305.668 145.432 306.524 146.926C307.486 148.535 307.165 152.557 305.775 158.993L292.513 218.753C290.588 227.602 286.096 231.969 279.251 231.969H135.615L103.637 375.508C102.567 380.105 101.284 383.208 99.6797 384.702H99.7866Z" fill="url(#paint0_linear_175_362)"/>
<defs>
<linearGradient id="paint0_linear_175_362" x1="183.5" y1="-15" x2="18.1143" y2="363.448" gradientUnits="userSpaceOnUse">
<stop stop-color="#E80024"/>
<stop offset="1" stop-color="#820014" stop-opacity="0.6"/>
</linearGradient>
</defs>
</svg>
