<svg width="124" height="124" viewBox="0 0 124 124" fill="none" xmlns="http://www.w3.org/2000/svg">
<g clip-path="url(#clip0_175_371)">
<rect width="124" height="124" rx="30" fill="#E80024"/>
<path fill-rule="evenodd" clip-rule="evenodd" d="M28.5518 129.521C28.0928 129.923 26.9911 130.14 25.1856 130.14H2.99927C0.612321 130.14 -0.366938 129.119 0.122692 127.048L18.0554 51.369C18.9428 47.6592 20.3199 44.0422 22.2172 40.487C24.084 36.9318 26.5321 33.8094 29.5311 31.058C32.5301 28.3375 36.1411 26.1426 40.3948 24.4732C44.6178 22.8347 49.5141 22 55.0225 22H102.547C103.802 22 104.567 22.1855 104.842 22.5565C105.118 22.8965 105.057 23.9476 104.628 25.7098L100.497 43.1766C100.16 44.5059 99.7624 45.4334 99.2116 45.8662C98.6913 46.3299 97.8345 46.5463 96.7022 46.5463H58.0826C56.0017 46.5463 54.2574 46.8245 52.8803 47.4119C51.4726 47.9684 50.371 48.6794 49.5753 49.4832C48.7491 50.3179 48.1064 51.2453 47.6474 52.2655C47.1884 53.2857 46.8518 54.3368 46.6069 55.357L44.3424 64.9405H85.4407C86.6954 64.9405 87.4604 65.1569 87.7052 65.5588C87.9807 65.9916 87.8889 67.0737 87.491 68.8049L83.6964 84.8805C83.1456 87.261 81.8603 88.4357 79.9018 88.4357H38.8035L29.6535 127.048C29.3475 128.285 28.9803 129.119 28.5212 129.521H28.5518Z" fill="white"/>
</g>
<defs>
<clipPath id="clip0_175_371">
<rect width="124" height="124" rx="30" fill="white"/>
</clipPath>
</defs>
</svg>
