<svg width="286" height="57" viewBox="0 0 286 57" fill="none" xmlns="http://www.w3.org/2000/svg">
<path d="M29 41.0282L19.1437 46.9657C18.7083 47.2428 18.2531 47.3616 17.7781 47.322C17.3031 47.2824 16.8875 47.1241 16.5312 46.847C16.175 46.5699 15.8979 46.2239 15.7 45.8091C15.5021 45.3943 15.4625 44.9288 15.5812 44.4126L18.1937 33.1907L9.46561 25.6501C9.06978 25.2938 8.82278 24.8877 8.72461 24.4317C8.62645 23.9757 8.65574 23.5308 8.81249 23.097C8.96924 22.6631 9.20674 22.3069 9.52499 22.0282C9.84324 21.7496 10.2787 21.5714 10.8312 21.4938L22.35 20.4845L26.8031 9.91572C27.001 9.44072 27.3082 9.08447 27.7246 8.84697C28.141 8.60947 28.5662 8.49072 29 8.49072C29.4338 8.49072 29.8589 8.60947 30.2754 8.84697C30.6918 9.08447 30.9989 9.44072 31.1969 9.91572L35.65 20.4845L47.1687 21.4938C47.7229 21.573 48.1583 21.7511 48.475 22.0282C48.7917 22.3053 49.0292 22.6616 49.1875 23.097C49.3458 23.5324 49.3759 23.9781 49.2777 24.4341C49.1796 24.8901 48.9318 25.2954 48.5344 25.6501L39.8062 33.1907L42.4187 44.4126C42.5375 44.9272 42.4979 45.3927 42.3 45.8091C42.1021 46.2255 41.825 46.5715 41.4687 46.847C41.1125 47.1225 40.6969 47.2808 40.2219 47.322C39.7469 47.3631 39.2917 47.2444 38.8562 46.9657L29 41.0282Z" fill="#5F5F5F"/>
<path d="M86 41.0282L76.1437 46.9657C75.7083 47.2428 75.2531 47.3616 74.7781 47.322C74.3031 47.2824 73.8875 47.1241 73.5312 46.847C73.175 46.5699 72.8979 46.2239 72.7 45.8091C72.5021 45.3943 72.4625 44.9288 72.5812 44.4126L75.1937 33.1907L66.4656 25.6501C66.0698 25.2938 65.8228 24.8877 65.7246 24.4317C65.6264 23.9757 65.6557 23.5308 65.8125 23.097C65.9692 22.6631 66.2067 22.3069 66.525 22.0282C66.8432 21.7496 67.2787 21.5714 67.8312 21.4938L79.35 20.4845L83.8031 9.91572C84.001 9.44072 84.3082 9.08447 84.7246 8.84697C85.141 8.60947 85.5662 8.49072 86 8.49072C86.4338 8.49072 86.8589 8.60947 87.2754 8.84697C87.6918 9.08447 87.9989 9.44072 88.1969 9.91572L92.65 20.4845L104.169 21.4938C104.723 21.573 105.158 21.7511 105.475 22.0282C105.792 22.3053 106.029 22.6616 106.187 23.097C106.346 23.5324 106.376 23.9781 106.278 24.4341C106.18 24.8901 105.932 25.2954 105.534 25.6501L96.8062 33.1907L99.4187 44.4126C99.5375 44.9272 99.4979 45.3927 99.3 45.8091C99.1021 46.2255 98.825 46.5715 98.4687 46.847C98.1125 47.1225 97.6969 47.2808 97.2219 47.322C96.7469 47.3631 96.2917 47.2444 95.8562 46.9657L86 41.0282Z" fill="#5F5F5F"/>
<path d="M143 41.0282L133.144 46.9657C132.708 47.2428 132.253 47.3616 131.778 47.322C131.303 47.2824 130.888 47.1241 130.531 46.847C130.175 46.5699 129.898 46.2239 129.7 45.8091C129.502 45.3943 129.463 44.9288 129.581 44.4126L132.194 33.1907L123.466 25.6501C123.07 25.2938 122.823 24.8877 122.725 24.4317C122.627 23.9757 122.656 23.5308 122.813 23.097C122.969 22.6631 123.207 22.3069 123.525 22.0282C123.843 21.7496 124.279 21.5714 124.831 21.4938L136.35 20.4845L140.803 9.91572C141.001 9.44072 141.308 9.08447 141.725 8.84697C142.141 8.60947 142.566 8.49072 143 8.49072C143.434 8.49072 143.859 8.60947 144.275 8.84697C144.692 9.08447 144.999 9.44072 145.197 9.91572L149.65 20.4845L161.169 21.4938C161.723 21.573 162.158 21.7511 162.475 22.0282C162.792 22.3053 163.029 22.6616 163.188 23.097C163.346 23.5324 163.376 23.9781 163.278 24.4341C163.18 24.8901 162.932 25.2954 162.534 25.6501L153.806 33.1907L156.419 44.4126C156.538 44.9272 156.498 45.3927 156.3 45.8091C156.102 46.2255 155.825 46.5715 155.469 46.847C155.113 47.1225 154.697 47.2808 154.222 47.322C153.747 47.3631 153.292 47.2444 152.856 46.9657L143 41.0282Z" fill="#5F5F5F"/>
<path d="M200 41.0282L190.144 46.9657C189.708 47.2428 189.253 47.3616 188.778 47.322C188.303 47.2824 187.888 47.1241 187.531 46.847C187.175 46.5699 186.898 46.2239 186.7 45.8091C186.502 45.3943 186.463 44.9288 186.581 44.4126L189.194 33.1907L180.466 25.6501C180.07 25.2938 179.823 24.8877 179.725 24.4317C179.627 23.9757 179.656 23.5308 179.813 23.097C179.969 22.6631 180.207 22.3069 180.525 22.0282C180.843 21.7496 181.279 21.5714 181.831 21.4938L193.35 20.4845L197.803 9.91572C198.001 9.44072 198.308 9.08447 198.725 8.84697C199.141 8.60947 199.566 8.49072 200 8.49072C200.434 8.49072 200.859 8.60947 201.275 8.84697C201.692 9.08447 201.999 9.44072 202.197 9.91572L206.65 20.4845L218.169 21.4938C218.723 21.573 219.158 21.7511 219.475 22.0282C219.792 22.3053 220.029 22.6616 220.188 23.097C220.346 23.5324 220.376 23.9781 220.278 24.4341C220.18 24.8901 219.932 25.2954 219.534 25.6501L210.806 33.1907L213.419 44.4126C213.538 44.9272 213.498 45.3927 213.3 45.8091C213.102 46.2255 212.825 46.5715 212.469 46.847C212.113 47.1225 211.697 47.2808 211.222 47.322C210.747 47.3631 210.292 47.2444 209.856 46.9657L200 41.0282Z" fill="#5F5F5F"/>
<path d="M257 41.0282L247.144 46.9657C246.708 47.2428 246.253 47.3616 245.778 47.322C245.303 47.2824 244.888 47.1241 244.531 46.847C244.175 46.5699 243.898 46.2239 243.7 45.8091C243.502 45.3943 243.463 44.9288 243.581 44.4126L246.194 33.1907L237.466 25.6501C237.07 25.2938 236.823 24.8877 236.725 24.4317C236.627 23.9757 236.656 23.5308 236.813 23.097C236.969 22.6631 237.207 22.3069 237.525 22.0282C237.843 21.7496 238.279 21.5714 238.831 21.4938L250.35 20.4845L254.803 9.91572C255.001 9.44072 255.308 9.08447 255.725 8.84697C256.141 8.60947 256.566 8.49072 257 8.49072C257.434 8.49072 257.859 8.60947 258.275 8.84697C258.692 9.08447 258.999 9.44072 259.197 9.91572L263.65 20.4845L275.169 21.4938C275.723 21.573 276.158 21.7511 276.475 22.0282C276.792 22.3053 277.029 22.6616 277.188 23.097C277.346 23.5324 277.376 23.9781 277.278 24.4341C277.18 24.8901 276.932 25.2954 276.534 25.6501L267.806 33.1907L270.419 44.4126C270.538 44.9272 270.498 45.3927 270.3 45.8091C270.102 46.2255 269.825 46.5715 269.469 46.847C269.113 47.1225 268.697 47.2808 268.222 47.322C267.747 47.3631 267.292 47.2444 266.856 46.9657L257 41.0282Z" fill="#5F5F5F"/>
<path d="M258.275 8.84697C257.859 8.60947 257.434 8.49072 257 8.49072V41.0282L266.856 46.9657C267.292 47.2444 267.747 47.3631 268.222 47.322C268.697 47.2808 269.113 47.1225 269.469 46.847C269.825 46.5715 270.102 46.2255 270.3 45.8091C270.498 45.3927 270.538 44.9272 270.419 44.4126L267.806 33.1907L276.534 25.6501C276.932 25.2954 277.18 24.8901 277.278 24.4341C277.376 23.9781 277.346 23.5324 277.188 23.097C277.029 22.6616 276.792 22.3053 276.475 22.0282C276.158 21.7511 275.723 21.573 275.169 21.4938L263.65 20.4845L259.197 9.91572C258.999 9.44072 258.692 9.08447 258.275 8.84697Z" fill="#DBDBDB"/>
</svg>
